# xmcd CD database file
#
# Track frame offsets:
#	150
#	30385
#	63798
#	86394
#	114767
#	148736
#	159379
#	178026
#	207754
#
# Disc length: 2934 seconds
#
# Revision: 0
# Processed by: cddbd v1.5.2PL0 Copyright (c) Steve Scherf et al.
# Submitted via: CDex 1.77
#
DISCID=670b7409
DTITLE=Michael Oien - And Now
DYEAR=2014
DGENRE=Jazz
TTITLE0=In the Early Autumn
TTITLE1=Skol
TTITLE2=Mad to Live
TTITLE3=Ask Anyone
TTITLE4=Smile this Mile
TTITLE5=Dreamer (part I)
TTITLE6=Dreamer (part II)
TTITLE7=Dreamer (part III)
TTITLE8=All my Trials
EXTD=YEAR: 2014
EXTT0=
EXTT1=
EXTT2=
EXTT3=
EXTT4=
EXTT5=
EXTT6=
EXTT7=
EXTT8=
PLAYORDER=
